# xmcd
#
# Track frame offsets: 
#        150
#        10126
#        26441
#        43125
#        61056
#        71338
#        78430
#        94578
#        110175
#        129629
#
# Disc length: 1867 seconds
#
# Revision: 0
# Processed by: cddbd v1.5.2PL0 Copyright (c) Steve Scherf et al.
# Submitted via: ExactAudioCopy v0.99pb4
#
DISCID=7c07490a
DTITLE=BLACKBERRY and Mr. BOO-HOO - HEATERS
DYEAR=2008
DGENRE=Blues
TTITLE0=I run in the prairie
TTITLE1=Black train
TTITLE2=Say yeah
TTITLE3=Hey mama
TTITLE4=I don't find you
TTITLE5=Chicken
TTITLE6=Kiss your lips
TTITLE7=Little boy
TTITLE8=When my little baby
TTITLE9=I'm too old
EXTD=
EXTT0=
EXTT1=
EXTT2=
EXTT3=
EXTT4=
EXTT5=
EXTT6=
EXTT7=
EXTT8=
EXTT9=
PLAYORDER=
